<svg id="Layer_1" enable-background="new 0 0 512.01 512.01" height="512" viewBox="0 0 512.01 512.01" width="512" xmlns="http://www.w3.org/2000/svg"><path d="m432.01 104.005c35.248 0 64 28.556 64 64 0 .1 1.618 0-64 0z" fill="#ffaa64"/><path d="m432.01 96.005v168c0 79.53-64.47 144-144 144h-272c18.043-15.222 228.249-192.585 256-216v-96c0-44.18 35.82-80 80-80 44.177 0 80 35.818 80 80z" fill="#b2b2b2"/><path d="m432.01 96.005v136c0 79.53-64.47 144-144 144h-234.071c56.41-47.603 4.073-3.442 218.07-184v-96c0-71.322 86.518-106.587 136.57-56.57 14.471 14.48 23.431 34.48 23.431 56.57z" fill="#c1bfbf"/><path d="m336.01 268.005c0 41.972-34.038 76-76 76h-228c63.828-55.119 132.542-114.463 136.65-118.01 25.38-21.93 57.81-33.99 91.35-33.99 42.027 0 76 34.095 76 76z" fill="#d6cece"/><path d="m333.35 248.005c-8.812 32.328-38.345 56-73.34 56h-181.68l90.33-78.01c25.38-21.93 57.81-33.99 91.35-33.99 34.979 0 64.523 23.655 73.34 56z" fill="#ece2e2"/><path d="m447.793 89.576c-3.247-49.407-44.289-89.571-95.783-89.571-52.935 0-96 43.065-96 96v80.056c-35.945.924-70.541 14.269-97.813 37.823l-136.645 118.011c-11.178 9.656-4.35 28.109 10.458 28.109h16.076l-42.395 35.772c-11.365 9.589-4.568 28.229 10.318 28.229h248v72c0 8.836 7.163 16 16 16s16-7.164 16-16v-72.2c10.992-.544 21.696-2.2 32-4.862v77.063c0 8.836 7.163 16 16 16s16-7.164 16-16v-89.143c52.157-26.394 88-80.515 88-142.857 0-12.427 0-71.408 0-80h48c8.837 0 16-7.164 16-16 .001-38.711-27.638-71.081-64.216-78.43zm-268.68 148.526c22.473-19.408 51.202-30.097 80.896-30.097 33.084 0 60 26.916 60 60s-26.916 60-60 60h-184.994zm236.897 25.903c0 70.58-57.421 128-128 128h-228.227l37.925-32h162.302c50.729 0 92-41.271 92-92 0-40.969-26.921-75.764-64-87.638v-84.362c0-35.29 28.71-64 64-64 35.301 0 64 28.566 64 64zm32-112v-29.258c13.619 4.829 24.43 15.64 29.258 29.258z"/><path d="m372.01 88.005c-11.03 0-20 8.97-20 20s8.97 20 20 20 20-8.97 20-20-8.97-20-20-20z"/></svg>